# xmcd
#
# Track frame offsets:
#	150
#	28569
#	42995
#	48257
#	59982
#	68690
#	71985
#	81072
#	103537
#	119302
#	148092
#	153307
#
# Disc length: 2473 seconds
#
# Revision: 1
# Processed by: cddbd v1.5.2PL0 Copyright (c) Steve Scherf et al.
# Submitted via: audiograbber 1.83.01
#
DISCID=ab09a70c
DTITLE=Guy Schmit and Friends - Back In Trouble Soundtrack 1997
DYEAR=1997
DGENRE=Blues
TTITLE0=Oak coat brown suitcase
TTITLE1=Johnny Chicago
TTITLE2=Flying Mercedes
TTITLE3=Used to
TTITLE4=Signed Sealed and Delivered
TTITLE5=Back in Trouble
TTITLE6=Jenny
TTITLE7=Budget 3001
TTITLE8=Gerdundula
TTITLE9=Trouble
TTITLE10=America
TTITLE11=Oak coat brown suitcase with Thierry van Werveke
EXTD=
EXTT0=
EXTT1=
EXTT2=
EXTT3=
EXTT4=
EXTT5=
EXTT6=
EXTT7=
EXTT8=
EXTT9=
EXTT10=
EXTT11=
PLAYORDER=
